<svg xmlns="http://www.w3.org/2000/svg" width="13.342" height="10.477" viewBox="0 0 13.342 10.477">
  <g id="Group_9915" data-name="Group 9915" transform="translate(-168 -1058)">
    <path id="Path_3855" data-name="Path 3855" d="M15.175,25.024H2.667a.417.417,0,0,0,0,.834H15.175a.417.417,0,1,0,0-.834Z" transform="translate(183.592 1085.287) rotate(180)" fill="#f29c27"/>
    <path id="Path_3856" data-name="Path 3856" d="M15.175,28.4H2.667a.417.417,0,0,0,0,.834H15.175a.417.417,0,1,0,0-.834Z" transform="translate(183.592 1087.233) rotate(180)" fill="#f29c27"/>
    <path id="Path_3857" data-name="Path 3857" d="M14.546,5.632H3.3A1.049,1.049,0,0,0,2.25,6.677v5.3A1.049,1.049,0,0,0,3.3,13.018H14.546a1.049,1.049,0,0,0,1.045-1.045v-5.3A1.049,1.049,0,0,0,14.546,5.632ZM4.692,12.065H3.62a.417.417,0,1,1,0-.834H4.692a.417.417,0,0,1,0,.834Zm0-4.646H3.62a.417.417,0,1,1,0-.834H4.692a.417.417,0,1,1,0,.834Zm4.229,4.288A2.382,2.382,0,1,1,11.3,9.325,2.386,2.386,0,0,1,8.921,11.707Zm5.3.357H13.15a.417.417,0,1,1,0-.834h1.072a.417.417,0,1,1,0,.834Zm0-4.646H13.15a.417.417,0,1,1,0-.834h1.072a.417.417,0,1,1,0,.834Z" transform="translate(183.592 1074.109) rotate(180)" fill="#f29c27"/>
    <path id="Path_3858" data-name="Path 3858" d="M17.43,12.336a1.578,1.578,0,1,1-1.578-1.578A1.578,1.578,0,0,1,17.43,12.336Z" transform="translate(190.523 1077.064) rotate(180)" fill="#f29c27"/>
  </g>
</svg>
