<svg xmlns="http://www.w3.org/2000/svg" width="17.255" height="15.338" viewBox="0 0 17.255 15.338">
  <path id="Icon_awesome-shopping-cart" data-name="Icon awesome-shopping-cart" d="M15.82,9.026,17.237,2.8a.719.719,0,0,0-.7-.878H4.769L4.495.575A.719.719,0,0,0,3.79,0H.719A.719.719,0,0,0,0,.719V1.2a.719.719,0,0,0,.719.719H2.812l2.1,10.288a1.678,1.678,0,1,0,2.008.257h6.28a1.677,1.677,0,1,0,1.905-.312l.165-.727a.719.719,0,0,0-.7-.878H6.534l-.2-.959h8.782A.719.719,0,0,0,15.82,9.026Z" fill="#fff" opacity="0.5"/>
</svg>
