<svg xmlns="http://www.w3.org/2000/svg" width="20.855" height="18.282" viewBox="0 0 20.855 18.282">
  <path id="Icon_map-food" data-name="Icon map-food" d="M21.529,7.7l-1.71,13.4H14.045l-1.7-13.469h7.05l1.393-4.813.79.238L20.238,7.694l1.291.01Zm-10,7.754s.216-1.738-2.779-1.738H3.978c-2.99,0-2.779,1.738-2.779,1.738H11.526ZM1.2,19.368s-.212,1.738,2.779,1.738H8.747c2.994,0,2.779-1.738,2.779-1.738Zm9.878-.869a1,1,0,0,0,.886-1.086,1,1,0,0,0-.886-1.087H1.606A1,1,0,0,0,.72,17.414,1,1,0,0,0,1.606,18.5h9.471Z" transform="translate(-0.72 -2.825)" fill="#fff"/>
</svg>
