<svg xmlns="http://www.w3.org/2000/svg" width="15" height="14" viewBox="0 0 15 14">
  <path id="Union_6" data-name="Union 6" d="M-10006.25-562a1.75,1.75,0,0,1-1.75-1.751,1.749,1.749,0,0,1,1.75-1.748h11.5a1.75,1.75,0,0,1,1.751,1.748,1.751,1.751,0,0,1-1.751,1.751Zm0-5.249A1.75,1.75,0,0,1-10008-569a1.75,1.75,0,0,1,1.75-1.751h5.5A1.748,1.748,0,0,1-9999-569a1.748,1.748,0,0,1-1.748,1.751Zm0-5.249a1.75,1.75,0,0,1-1.75-1.751,1.75,1.75,0,0,1,1.75-1.751h11.5A1.751,1.751,0,0,1-9993-574.25a1.751,1.751,0,0,1-1.751,1.751Z" transform="translate(10008 576)" fill="#f29c27"/>
</svg>
