<svg xmlns="http://www.w3.org/2000/svg" width="13.792" height="17.25" viewBox="0 0 13.792 17.25">
  <g id="Icon_ionic-ios-notifications" data-name="Icon ionic-ios-notifications" transform="translate(-6.761 -3.93)" opacity="0.5">
    <path id="Path_3943" data-name="Path 3943" d="M16.682,30.621a2.032,2.032,0,0,0,2.074-2.285H14.6A2.033,2.033,0,0,0,16.682,30.621Z" transform="translate(-3.034 -9.44)" fill="#fff"/>
    <path id="Path_3944" data-name="Path 3944" d="M20.378,16.705c-.664-.875-1.97-1.388-1.97-5.307,0-4.023-1.776-5.639-3.432-6.027-.155-.039-.267-.091-.267-.254V4.991a1.052,1.052,0,1,0-2.1,0v.125c0,.16-.112.216-.267.254-1.66.392-3.432,2-3.432,6.027,0,3.919-1.306,4.428-1.97,5.307a.856.856,0,0,0,.686,1.371H19.7A.856.856,0,0,0,20.378,16.705Z" transform="translate(0 0)" fill="#fff"/>
  </g>
</svg>
