<svg xmlns="http://www.w3.org/2000/svg" width="12.32" height="12.315" viewBox="0 0 12.32 12.315">
  <path id="Icon_simple-cashapp" data-name="Icon simple-cashapp" d="M12.109,1.781A2.618,2.618,0,0,0,10.544.216,7.972,7.972,0,0,0,8.018,0H4.291A8.28,8.28,0,0,0,1.776.205,2.618,2.618,0,0,0,.21,1.776,8.1,8.1,0,0,0,0,4.291V8.023a8.28,8.28,0,0,0,.205,2.515A2.618,2.618,0,0,0,1.771,12.1a8.1,8.1,0,0,0,2.515.21H8.023a8.263,8.263,0,0,0,2.515-.205,2.618,2.618,0,0,0,1.571-1.571,8.1,8.1,0,0,0,.21-2.515V4.3a8.122,8.122,0,0,0-.21-2.52ZM8.942,4.158l-.477.477a.257.257,0,0,1-.344.005,2.567,2.567,0,0,0-1.653-.606c-.5,0-1,.164-1,.621s.534.616,1.15.847c1.078.359,1.971.811,1.971,1.869,0,1.15-.893,1.94-2.351,2.028l-.133.616a.252.252,0,0,1-.246.2H4.943L4.9,10.21a.257.257,0,0,1-.2-.3l.144-.652a3.357,3.357,0,0,1-1.478-.806V8.444a.246.246,0,0,1,0-.349l.513-.5a.252.252,0,0,1,.344,0,2.482,2.482,0,0,0,1.74.678c.667,0,1.114-.282,1.114-.729s-.452-.565-1.3-.883c-.9-.323-1.761-.78-1.761-1.848,0-1.242,1.032-1.848,2.254-1.9L6.4,2.279a.246.246,0,0,1,.246-.2h.914l.051.005a.246.246,0,0,1,.19.293l-.139.7A3.852,3.852,0,0,1,8.932,3.8l.01.01a.245.245,0,0,1,0,.349Z" fill="#f29c27"/>
</svg>
