<svg id="insurance_4_" data-name="insurance (4)" xmlns="http://www.w3.org/2000/svg" width="19" height="19" viewBox="0 0 19 19">
  <path id="Path_3860" data-name="Path 3860" d="M11.281,0h-9.1A2.176,2.176,0,0,0,0,2.177V14.448a2.176,2.176,0,0,0,2.177,2.177H8.629A6.89,6.89,0,0,1,7.521,12.9V10.972a.765.765,0,0,1-.4.111H3.167a.792.792,0,1,1,0-1.583H7.125a.772.772,0,0,1,.4.111,2.323,2.323,0,0,1,.847-1.694H3.167a.792.792,0,1,1,0-1.583h7.125a.8.8,0,0,1,.736.5l2.256-.768a.629.629,0,0,1,.174-.048V2.177A2.176,2.176,0,0,0,11.281,0ZM6.333,4.75H3.167a.792.792,0,0,1,0-1.583H6.333a.792.792,0,1,1,0,1.583Z" fill="#fff"/>
  <path id="Path_3861" data-name="Path 3861" d="M20.859,10.956,16.7,9.542a.794.794,0,0,0-.511,0l-4.156,1.414a.793.793,0,0,0-.537.75v3.181c0,4.011,4.448,5.949,4.638,6.03a.8.8,0,0,0,.311.063.783.783,0,0,0,.31-.063c.189-.081,4.638-2.018,4.638-6.029V11.706a.791.791,0,0,0-.537-.75Zm-1.6,2.977L16.883,17.1a.788.788,0,0,1-.577.314l-.056,0a.788.788,0,0,1-.56-.232L14.107,15.6a.792.792,0,0,1,1.119-1.119l.938.938,1.827-2.437a.792.792,0,0,1,1.267.95Z" transform="translate(-2.396 -1.979)" fill="#fff"/>
</svg>
