<svg xmlns="http://www.w3.org/2000/svg" width="14.706" height="14.706" viewBox="0 0 14.706 14.706">
  <g id="magnifier_2_" data-name="magnifier (2)" transform="translate(5.999 0)">
    <g id="Group_4597" data-name="Group 4597" transform="translate(-5.999 0)">
      <path id="Path_3842" data-name="Path 3842" d="M12.962,10.184A5.967,5.967,0,1,0,4.523,1.745a5.851,5.851,0,0,0-.9,7.2.251.251,0,0,1-.035.3L.546,12.29a1.39,1.39,0,0,0-.213,1.991l.093.092a1.39,1.39,0,0,0,1.991-.213l3.038-3.038a.255.255,0,0,1,.305-.041A5.851,5.851,0,0,0,12.962,10.184Zm-7.337-1.1a4.409,4.409,0,1,1,6.236,0A4.414,4.414,0,0,1,5.625,9.082Z" transform="translate(-0.001 0)" fill="#fff"/>
      <g id="Group_4596" data-name="Group 4596" transform="translate(5.389 2.388)">
        <path id="Path_3843" data-name="Path 3843" d="M114.368,53.631a.616.616,0,0,1-.567-.856,3.881,3.881,0,0,1,5.082-2.06.616.616,0,1,1-.48,1.134,2.648,2.648,0,0,0-3.467,1.405A.616.616,0,0,1,114.368,53.631Z" transform="translate(-113.752 -50.409)" fill="#fff"/>
      </g>
    </g>
  </g>
</svg>
