<svg xmlns="http://www.w3.org/2000/svg" width="8.725" height="12.915" viewBox="0 0 8.725 12.915">
  <path id="timer" d="M11.047,14.165H7.155a2.255,2.255,0,0,1-2.283-1.291,2.438,2.438,0,0,1,.769-2.625L8.429,7.707,5.641,5.166a2.438,2.438,0,0,1-.769-2.625A2.247,2.247,0,0,1,7.155,1.25h3.892A2.255,2.255,0,0,1,13.33,2.541a2.438,2.438,0,0,1-.769,2.625L9.774,7.707l2.793,2.541a2.448,2.448,0,0,1,.769,2.625A2.269,2.269,0,0,1,11.047,14.165ZM7.155,2.151c-.751,0-1.261.252-1.442.721a1.57,1.57,0,0,0,.535,1.634L9.1,7.1l2.853-2.595a1.581,1.581,0,0,0,.535-1.634c-.18-.463-.691-.721-1.442-.721Z" transform="translate(13.466 14.165) rotate(180)" fill="#14ad00"/>
</svg>
